# AST/ASF file generated using VICON BodyLanguage
# -----------------------------------------------
:version 1.10
:name VICON
:units
  mass 1.0
  length 0.45
  angle deg
:documentation
   .ast/.asf automatically generated from VICON data using
   VICON BodyBuilder and BodyLanguage model FoxedUp or BRILLIANT.MOD
:root
   order TX TY TZ RX RY RZ
   axis XYZ
   position 0 0 0  
   orientation 0 0 0 
:bonedata
  begin
     id 1 
     name lhipjoint
     direction 0.602128 -0.715006 0.355257 
     length 2.21237 
     axis 0 0 0  XYZ
  end
  begin
     id 2 
     name lfemur
     direction 0.34202 -0.939693 0  
     length 6.71649  
     axis 0 0 20  XYZ
    dof rx ry rz
    limits (-160.0 20.0)
           (-70.0 70.0)
           (-60.0 70.0)
  end
  begin
     id 3 
     name ltibia
     direction 0.34202 -0.939693 0   
     length 6.97123   
     axis 0 0 20   XYZ
    dof rx
    limits (-10.0 170.0)
  end
  begin
     id 4 
     name lfoot
     direction 0.0655697 -0.180151 0.981451   
     length 1.80924   
     axis -90 7.62852e-016 20   XYZ
    dof rx rz
    limits (-45.0 90.0)
           (-70.0 20.0)
  end
  begin
     id 5 
     name ltoes
     direction 1.53545e-011 -4.21827e-011 1   
     length 0.916331   
     axis -90 7.62852e-016 20   XYZ
    dof rx
    limits (-90.0 20.0)
  end
  begin
     id 6 
     name rhipjoint
     direction -0.625414 -0.698792 0.347201   
     length 2.2637  
     axis 0 0 0  XYZ 
  end
  begin
     id 7 
     name rfemur
     direction -0.34202 -0.939693 0   
     length 7.07595   
     axis 0 0 -20   XYZ
    dof rx ry rz
    limits (-160.0 20.0)
           (-70.0 70.0)
           (-70.0 60.0)
  end
  begin
     id 8 
     name rtibia
     direction -0.34202 -0.939693 0   
     length 7.22924   
     axis 0 0 -20   XYZ
    dof rx
    limits (-10.0 170.0)
 end
 begin
     id 9 
     name rfoot
     direction -0.0766747 -0.210662 0.974547   
     length 1.98482  
     axis -90 -7.62852e-016 -20   XYZ
    dof rx rz
    limits (-45.0 90.0)
           (-20.0 70.0)
  end
  begin
     id 10 
     name rtoes
     direction -1.53532e-011 -4.21867e-011 1   
     length 0.999842   
     axis -90 -7.62852e-016 -20   XYZ
    dof rx
    limits (-90.0 20.0)
  end
  begin
     id 11 
     name lowerback
     direction -0.0224668 0.997354 -0.0691422   
     length 2.09945   
     axis 0 0 0   XYZ
    dof rx ry rz
    limits (-20.0 45.0)
           (-30.0 30.0)
           (-30.0 30.0)
  end
  begin
     id 12 
     name upperback
     direction 0.0134698 0.998451 -0.0539888   
     length 2.09758   
     axis 0 0 0   XYZ
    dof rx ry rz
    limits (-20.0 45.0)
           (-30.0 30.0)
           (-30.0 30.0)
  end
  begin
     id 13 
     name thorax
     direction 0.0241905 0.99948 -0.0213333   
     length 2.10428   
     axis 0 0 0   XYZ
    dof rx ry rz
    limits (-20.0 45.0)
           (-30.0 30.0)
           (-30.0 30.0)
  end
  begin
     id 14 
     name lowerneck
     direction -0.00866847 0.995978 0.0891737   
     length 1.3959   
     axis 0 0 0   XYZ
    dof rx ry rz
    limits (-20.0 45.0)
           (-30.0 30.0)
           (-30.0 30.0)
  end
  begin
     id 15 
     name upperneck
     direction 0.0680679 0.992203 0.104404   
     length 1.39452   
     axis 0 0 0   XYZ
    dof rx ry rz
    limits (-20.0 45.0)
           (-30.0 30.0)
           (-30.0 30.0)
  end
  begin
     id 16
     name head
     direction 0.0242216 0.999358 0.0264054  
     length 1.40433  
     axis 0 0 0   XYZ
    dof rx ry rz
    limits (-20.0 45.0)
           (-30.0 30.0)
           (-30.0 30.0)
  end
  begin
     id 17 
     name lclavicle
     direction 0.929368 0.362991 -0.0671771  
     length 3.04887  
     axis 0 0 0   XYZ
    dof ry rz
    limits (-20.0 10.0)
           (0.0 20.0)
  end
  begin
     id 18 
     name lhumerus
     direction 1 -4.48967e-011 -7.13741e-028   
     length 4.77195   
     axis -180 -30 -90   XYZ
    dof rx ry rz
    limits (-60.0 90.0)
           (-90.0 90.0)
           (-90.0 90.0)
  end
  begin
     id 19
     name lradius
     direction 1 -4.48977e-011 3.60404e-027   
     length 2.98444   
     axis -180 -30 -90   XYZ
    dof rx
    limits (-10.0 170.0)
  end
  begin
     id 20
     name lwrist
     direction 1 -4.48997e-011 7.54877e-027   
     length 1.49222   
     axis -7.18178e-015 90 90   XYZ
    dof ry
    limits (-180.0 0.0)
 end
  begin
     id 21 
     name lhand
     direction 1 -4.489e-011 1.51105e-026   
     length 0.992285   
     axis -9.63605e-015 90 90   XYZ
    dof rx rz
    limits (-90.0 90.0)
           (-45.0 45.0)
  end
  begin
     id 22 
     name lfingers
     direction 1 -4.48998e-011 3.01948e-026   
     length 0.800006   
     axis -1.92718e-014 90 90   XYZ
    dof rx
    limits (0.0 90.0)
  end
  begin
     id 23
     name lthumb
     direction 0.707107 -6.34881e-011 0.707107   
     length 1.14865   
     axis -90 45 -3.53137e-014   XYZ
    dof rx rz
    limits (-45.0 45.0)
           (-45.0 45.0)
  end
  begin
     id 24 
     name rclavicle
     direction -0.945672 0.324529 0.0196374   
     length 3.4236  
     axis 0 0 0   XYZ 
    dof ry rz
    limits (-10.0 20.0)
           (-20.0 0.0)
  end
  begin
     id 25 
     name rhumerus
     direction -1 -4.4896e-011 1.02757e-029  
     length 4.62052   
     axis -180 30 90   XYZ
    dof rx ry rz
    limits (-90.0 60.0)
           (-90.0 90.0)
           (-90.0 90.0)
  end
  begin
     id 26 
     name rradius
     direction -1 -4.48982e-011 3.85962e-027   
     length 2.95332   
     axis -180 30 90   XYZ
    dof rx
    limits (-10.0 170.0)
  end
  begin
     id 27 
     name rwrist
     direction -1 -4.48961e-011 7.55118e-027   
     length 1.47666   
     axis -7.18178e-015 -90 -90   XYZ
    dof ry
    limits (-180.0 0.0)
  end
  begin
     id 28
     name rhand
     direction -1 -4.48984e-011 1.50994e-026   
     length 0.990956   
     axis -9.63605e-015 -90 -90   XYZ
    dof rx rz
    limits (-90.0 90.0)
           (-45.0 45.0)
  end
  begin
     id 29
     name rfingers
     direction -1 -4.4892e-011 3.02158e-026   
     length 0.798934   
     axis -1.92718e-014 -90 -90   XYZ
    dof rx
    limits (0.0 90.0)
  end
  begin
     id 30
     name rthumb
     direction -0.707107 -6.34916e-011 0.707107   
     length 1.14711   
     axis -90 -45 3.53137e-014   XYZ
    dof rx rz
    limits (-45.0 45.0)
           (-45.0 45.0)
  end
:hierarchy
  begin
    root lhipjoint rhipjoint lowerback
    lhipjoint lfemur
    lfemur ltibia
    ltibia lfoot
    lfoot ltoes
    rhipjoint rfemur
    rfemur rtibia
    rtibia rfoot
    rfoot rtoes
    lowerback upperback
    upperback thorax
    thorax lowerneck lclavicle rclavicle
    lowerneck upperneck
    upperneck head
    lclavicle lhumerus
    lhumerus lradius
    lradius lwrist
    lwrist lhand lthumb
    lhand lfingers
    rclavicle rhumerus
    rhumerus rradius
    rradius rwrist
    rwrist rhand rthumb
    rhand rfingers
  end

#!OML:ASF H:\ManfredObstacles\Project 1\Capture day 1\Session 1\Male.ASF
:FULLY-SPECIFIED
:DEGREES
273
root -7.99824 16.328 8.32761 -175.918 45.204 -185.339
lowerback -7.8184 -3.14032 -6.98025
upperback 3.7661 -3.31224 -0.568292
thorax 8.79427 -1.96589 2.7948
lowerneck 1.88449 -3.22072 -5.30353
upperneck -1.33825 -4.08833 12.9972
head -0.314591 -2.06188 4.78563
rclavicle -3.03147e-014 1.31198e-014
rhumerus -39.9579 -22.8862 -73.1107
rradius 27.5215
rwrist 33.402
rhand -1.40906 -4.98313
rfingers 7.12502
rthumb 24.2401 -33.4709
lclavicle -3.03147e-014 1.31198e-014
lhumerus -18.8987 4.92475 82.3466
lradius 21.5986
lwrist -25.9942
lhand -7.28181 10.1708
lfingers 7.12502
lthumb 18.5998 39.3016
rfemur -41.0545 -12.2375 19.47
rtibia 43.1431
rfoot -14.4311 4.96163
rtoes 21.3289
lfemur -4.9971 -0.399743 -24.8758
ltibia 15.1199
lfoot -6.52592 -17.6741
ltoes 13.3442
274
root -7.85605 16.3336 8.20162 -175.775 44.8615 -185.431
lowerback -7.90524 -3.19036 -6.94446
upperback 3.82297 -3.3659 -0.631663
thorax 8.90679 -1.99032 2.69206
lowerneck 1.67759 -3.39988 -4.84193
upperneck -1.44183 -4.29927 12.8975
head -0.302987 -2.16164 4.67443
rclavicle 3.44891e-014 2.14687e-014
rhumerus -40.4951 -24.1638 -72.4726
rradius 26.9937
rwrist 33.8175
rhand -1.27002 -4.90617
rfingers 7.12502
rthumb 24.3734 -33.3761
lclavicle 3.44891e-014 2.14687e-014
lhumerus -18.4044 3.26586 82.9602
lradius 22.1305
lwrist -25.1961
lhand -7.28076 10.1881
lfingers 7.12502
lthumb 18.6008 39.3188
rfemur -41.2405 -12.3949 19.5886
rtibia 39.2693
rfoot -14.3937 4.90556
rtoes 21.4702
lfemur -3.23924 -0.37346 -24.8645
ltibia 12.6339
lfoot -5.49689 -17.6609
ltoes 13.7684
275
root -7.709 16.3268 8.08436 -175.483 44.5497 -185.413
lowerback -7.92271 -3.46373 -7.12463
upperback 3.7389 -3.73835 -0.400154
thorax 8.89633 -2.18992 2.97699
lowerneck 1.64479 -3.32022 -5.0172
upperneck -1.49292 -4.19884 12.824
head -0.319354 -2.11365 4.68161
rclavicle 8.9801e-014 -1.2921e-014
rhumerus -40.8659 -24.7019 -71.7318
rradius 26.3519
rwrist 34.3258
rhand -1.33404 -4.90212
rfingers 7.12502
rthumb 24.312 -33.3803
lclavicle 8.9801e-014 -1.2921e-014
lhumerus -18.3435 2.76973 83.6696
lradius 22.6461
lwrist -24.9504
lhand -7.56799 10.2722
lfingers 7.12502
lthumb 18.3245 39.4291
rfemur -41.4562 -12.1969 19.7082
rtibia 35.4391
rfoot -14.451 4.69043
rtoes 21.3536
lfemur -1.66108 -0.316422 -24.7306
ltibia 10.3063
lfoot -4.46542 -17.6061
ltoes 13.7715
276
root -7.55763 16.3426 7.96935 -175.145 44.1831 -185.345
lowerback -7.85782 -3.78826 -7.30871
upperback 3.53412 -4.1989 -0.100188
thorax 8.72741 -2.42918 3.33062
lowerneck 1.76409 -3.18737 -5.47775
upperneck -1.50088 -4.03949 12.9167
head -0.344397 -2.04007 4.78981
rclavicle 8.67198e-015 -5.96354e-015
rhumerus -41.4254 -24.8905 -70.9347
rradius 25.9236
rwrist 34.8749
rhand -1.06573 -5.28548
rfingers 7.12502
rthumb 24.5692 -33.729
lclavicle 8.67198e-015 -5.96354e-015
lhumerus -18.5182 2.60396 84.4108
lradius 23.012
lwrist -24.9546
lhand -8.02342 10.3883
lfingers 7.12502
lthumb 17.8863 39.5858
rfemur -41.4769 -11.7957 19.6401
rtibia 31.8809
rfoot -14.8098 4.20087
rtoes 20.6089
lfemur -0.094864 -1.15374 -24.5271
ltibia 7.94581
lfoot -3.83961 -16.6954
ltoes 13.1278
277
root -7.39927 16.3413 7.84251 -174.723 44.0323 -185.132
lowerback -7.93566 -3.84931 -7.10091
upperback 3.36219 -4.32005 0.0174644
thorax 8.59038 -2.47551 3.32177
lowerneck 1.85649 -3.21469 -5.55998
upperneck -1.54739 -4.0721 13.0496
head -0.365528 -2.06019 4.84636
rclavicle 3.86636e-014 -1.39149e-015
rhumerus -42.3325 -25.7969 -69.9305
rradius 25.5215
rwrist 35.8569
rhand -0.675601 -5.54367
rfingers 7.12502
rthumb 24.9431 -33.9358
lclavicle 3.86636e-014 -1.39149e-015
lhumerus -18.5899 1.93088 85.0383
lradius 23.2809
lwrist -24.5225
lhand -8.09054 10.1922
lfingers 7.12502
lthumb 17.8217 39.3956
rfemur -41.3713 -11.0641 19.5423
rtibia 28.6609
rfoot -15.1485 3.59191
rtoes 20.3914
lfemur 1.8135 -1.76839 -24.2664
ltibia 5.04607
lfoot -2.86864 -15.7812
ltoes 12.9346
278
root -7.23867 16.3319 7.7142 -174.428 43.809 -185.147
lowerback -8.03655 -3.97152 -7.03883
upperback 3.2064 -4.49946 0.106732
thorax 8.50262 -2.55794 3.3512
lowerneck 1.92519 -3.20547 -5.59725
upperneck -1.63192 -4.05412 13.0734
head -0.401937 -2.05585 4.86227
rclavicle 6.78353e-014 -6.65929e-015
rhumerus -43.0898 -26.7848 -68.9059
rradius 24.9445
rwrist 36.952
rhand -0.439197 -5.32389
rfingers 7.12502
rthumb 25.1696 -33.6844
lclavicle 6.78353e-014 -6.65929e-015
lhumerus -18.676 1.39936 85.6238
lradius 23.6034
lwrist -23.7654
lhand -7.87156 9.93574
lfingers 7.12502
lthumb 18.0324 39.1198
rfemur -41.3441 -10.2221 19.1351
rtibia 25.9958
rfoot -15.3887 2.54898
rtoes 20.1524
lfemur 4.78026 -2.47435 -24.216
ltibia -6.36111e-015
lfoot -0.520563 -14.3702
ltoes 14.3934
279
root -7.04792 16.3266 7.5805 -173.65 43.4806 -184.496
lowerback -8.54124 -4.09703 -6.58888
upperback 3.20906 -4.70261 0.297409
thorax 8.79864 -2.64703 3.23597
lowerneck 1.76033 -3.23771 -5.5075
upperneck -1.6845 -4.0836 13.0896
head -0.388412 -2.06591 4.84949
rclavicle -5.05658e-014 1.37161e-014
rhumerus -43.6101 -27.605 -68.2465
rradius 24.4424
rwrist 37.511
rhand -0.239183 -5.11144
rfingers 7.12502
rthumb 25.3613 -33.4449
lclavicle -5.05658e-014 1.37161e-014
lhumerus -18.6374 0.850829 86.1444
lradius 23.8343
lwrist -23.0867
lhand -7.55514 9.68995
lfingers 7.12502
lthumb 18.3368 38.8457
rfemur -41.0743 -9.09054 19.1093
rtibia 23.8555
rfoot -15.8576 1.05512
rtoes 19.33
lfemur 5.2689 -3.23312 -23.5509
ltibia -2.70347e-014
lfoot -0.62201 -13.8158
ltoes 15.4451
280
root -6.84618 16.322 7.39702 -172.264 42.8393 -183.23
lowerback -9.70242 -4.23863 -5.17127
upperback 3.2023 -5.02404 0.514923
thorax 9.38581 -2.74125 2.54378
lowerneck 1.52144 -3.31785 -5.37275
upperneck -1.63676 -4.18478 13.0851
head -0.328036 -2.10635 4.81991
rclavicle -1.75055e-014 -9.93923e-016
rhumerus -44.2633 -28.3989 -67.5026
rradius 23.942
rwrist 37.9797
rhand -0.292676 -5.27914
rfingers 7.12502
rthumb 25.31 -33.6199
lclavicle -1.75055e-014 -9.93923e-016
lhumerus -18.6891 0.45591 86.6615
lradius 23.9193
lwrist -22.6417
lhand -6.90676 9.32492
lfingers 7.12502
lthumb 18.9605 38.4208
rfemur -41.125 -10.56 20.7885
rtibia 22.3808
rfoot -15.6961 2.09578
rtoes 18.6416
lfemur 5.83657 -4.24013 -22.5396
ltibia -2.22639e-014
lfoot -1.10886 -13.3633
ltoes 14.6403
281
root -6.65728 16.2942 7.2631 -172.316 42.6088 -183.383
lowerback -9.62834 -4.35702 -5.31782
upperback 3.07461 -5.18055 0.618162
thorax 9.24255 -2.82545 2.71533
lowerneck 1.45294 -3.35886 -5.41099
upperneck -1.6362 -4.24271 13.0426
head -0.311053 -2.1334 4.8116
rclavicle -1.19519e-014 -2.48481e-016
rhumerus -45.0473 -29.279 -66.3439
rradius 23.3421
rwrist 38.9591
rhand -0.458228 -5.46622
rfingers 7.12502
rthumb 25.1514 -33.8293
lclavicle -1.19519e-014 -2.48481e-016
lhumerus -18.9334 0.454021 87.2155
lradius 23.9385
lwrist -22.4439
lhand -6.24593 8.98006
lfingers 7.12502
lthumb 19.5959 38.0125
rfemur -40.6497 -10.0281 20.4328
rtibia 21.6162
rfoot -15.9768 1.48757
rtoes 19.9915
lfemur 6.66418 -4.94431 -22.5368
ltibia -3.18055e-015
lfoot -1.37082 -12.835
ltoes 13.1501
282
root -6.4565 16.2646 7.1274 -172.156 42.54 -183.245
lowerback -9.71779 -4.41488 -5.23235
upperback 3.0132 -5.27546 0.715145
thorax 9.23795 -2.86911 2.74923
lowerneck 1.57648 -3.37651 -5.43014
upperneck -1.91769 -4.23803 13.152
head -0.410849 -2.14217 4.85411
rclavicle -3.11346e-014 6.41081e-015
rhumerus -45.7932 -30.3971 -65.1554
rradius 22.7481
rwrist 40.1487
rhand -0.292728 -5.43559
rfingers 7.12502
rthumb 25.31 -33.7763
lclavicle -3.11346e-014 6.41081e-015
lhumerus -19.1695 0.520935 87.6215
lradius 23.9537
lwrist -22.3746
lhand -5.78251 8.72789
lfingers 7.12502
lthumb 20.0414 37.7143
rfemur -40.1361 -9.87763 20.7684
rtibia 21.467
rfoot -16.0535 1.20885
rtoes 20.0044
lfemur 7.53877 -5.46178 -22.3177
ltibia 3.18055e-015
lfoot -1.51599 -12.1975
ltoes 11.6996
283
root -6.24078 16.2314 6.98063 -172.222 42.4675 -183.564
lowerback -10.0799 -4.59112 -5.4112
upperback 2.9222 -5.46727 0.695502
thorax 9.38549 -2.97036 2.76702
lowerneck 1.88945 -3.31474 -5.5244
upperneck -2.29652 -4.12286 13.2844
head -0.579036 -2.10524 4.92184
rclavicle -4.75779e-014 -1.26477e-014
rhumerus -46.4653 -31.2086 -64.1614
rradius 22.2311
rwrist 41.1686
rhand -0.00101192 -5.41548
rfingers 7.12502
rthumb 25.5894 -33.7164
lclavicle -4.75779e-014 -1.26477e-014
lhumerus -19.5202 0.775615 87.9012
lradius 23.9022
lwrist -22.262
lhand -5.31546 8.59418
lfingers 7.12502
lthumb 20.4903 37.5329
rfemur -39.7511 -9.85405 20.7606
rtibia 21.9469
rfoot -15.4298 1.28363
rtoes 19.9841
lfemur 8.39662 -6.03113 -22.4757
ltibia 6.36111e-015
lfoot -1.44496 -11.5903
ltoes 11.1157
284
root -6.01386 16.2008 6.83315 -172.401 42.3434 -184.061
lowerback -10.4932 -4.83043 -5.75114
upperback 2.8194 -5.71389 0.656593
thorax 9.57221 -3.10599 2.8363
lowerneck 2.02409 -3.27932 -5.74062
upperneck -2.48191 -4.06594 13.401
head -0.653497 -2.08645 4.99898
rclavicle -4.39376e-014 -6.60959e-015
rhumerus -47.0226 -31.7445 -63.3484
rradius 21.7652
rwrist 42.0278
rhand 0.117776 -5.43128
rfingers 7.12502
rthumb 25.7032 -33.7158
lclavicle -4.39376e-014 -6.60959e-015
lhumerus -19.9142 1.15607 88.1122
lradius 23.6619
lwrist -22.2171
lhand -4.99061 8.50865
lfingers 7.12502
lthumb 20.8024 37.4135
rfemur -39.2003 -9.74494 20.544
rtibia 22.5806
rfoot -13.8593 1.38078
rtoes 19.0326
lfemur 9.23976 -6.67303 -22.6844
ltibia 3.49861e-014
lfoot -0.969402 -11.1112
ltoes 12.0377
285
root -5.77539 16.2137 6.6824 -172.542 42.3479 -184.228
lowerback -10.7424 -4.97703 -5.9154
upperback 2.78161 -5.87602 0.697952
thorax 9.71693 -3.19547 2.91919
lowerneck 1.95031 -3.29431 -6.05967
upperneck -2.524 -4.08716 13.5984
head -0.639694 -2.09532 5.1121
rclavicle -3.41211e-014 -2.10805e-014
rhumerus -47.5012 -32.3823 -62.4866
rradius 21.2793
rwrist 42.753
rhand 0.175886 -5.38144
rfingers 7.12502
rthumb 25.7588 -33.6579
lclavicle -3.41211e-014 -2.10805e-014
lhumerus -20.3739 1.6617 88.3384
lradius 23.3285
lwrist -22.7288
lhand -5.12883 8.62529
lfingers 7.12502
lthumb 20.6696 37.5447
rfemur -38.7589 -9.26326 20.3144
rtibia 23.3496
rfoot -11.7138 1.3787
rtoes 20.2664
lfemur 10.2953 -7.15035 -22.6505
ltibia -3.18055e-015
lfoot -0.307567 -10.6228
ltoes 12.2106
286
root -5.54593 16.2222 6.55326 -171.842 42.4191 -183.35
lowerback -10.7063 -5.02485 -5.45774
upperback 2.61037 -6.04743 1.06098
thorax 9.5149 -3.26075 3.0299
lowerneck 1.92132 -3.25244 -6.3341
upperneck -2.53723 -4.03871 13.6818
head -0.635707 -2.07046 5.18354
rclavicle 4.28381e-014 2.16675e-014
rhumerus -47.8788 -32.8588 -61.648
rradius 20.8886
rwrist 43.2003
rhand 0.294037 -5.38376
rfingers 7.12502
rthumb 25.872 -33.6437
lclavicle 4.28381e-014 2.16675e-014
lhumerus -20.8765 2.28079 88.6682
lradius 22.8402
lwrist -23.7731
lhand -5.55271 8.96804
lfingers 7.12502
lthumb 20.2623 37.9312
rfemur -38.6067 -8.4958 20.9804
rtibia 24.0277
rfoot -9.73166 1.30055
rtoes 23.8454
lfemur 11.1219 -7.47116 -21.7357
ltibia 0
lfoot 0.512318 -9.92765
ltoes 11.118
287
root -5.31801 16.2378 6.40939 -171.374 42.6492 -182.775
lowerback -10.7705 -5.0379 -5.02854
upperback 2.46729 -6.14612 1.29723
thorax 9.38321 -3.28853 3.02632
lowerneck 1.86311 -3.16652 -6.34758
upperneck -2.49171 -3.93189 13.5622
head -0.6262 -2.01431 5.14759
rclavicle 8.77137e-015 -2.47487e-014
rhumerus -48.0536 -32.9701 -61.2012
rradius 20.6965
rwrist 43.3767
rhand 0.482268 -5.5591
rfingers 7.12502
rthumb 26.0522 -33.7927
lclavicle 8.77137e-015 -2.47487e-014
lhumerus -21.3136 3.06249 88.8496
lradius 22.1194
lwrist -24.8506
lhand -5.73782 9.14766
lfingers 7.12502
lthumb 20.0844 38.1296
rfemur -38.3206 -8.64266 21.7739
rtibia 24.7438
rfoot -8.14954 2.44059
rtoes 27.8523
lfemur 11.9785 -7.65772 -21.1397
ltibia 3.18055e-015
lfoot 1.67887 -9.07339
ltoes 10.4612
